<svg width="24" height="24" viewBox="0 0 24 24" fill="none" xmlns="http://www.w3.org/2000/svg">
<path d="M18.4399 20.4041C17.0023 22.8 11.2524 23.2791 8.8566 22.3208L7.89826 18.5939L5.4066 8.90409L4.5441 5.54992C0.710687 1.71662 18.4398 -1.15843 17.0024 3.15409L17.3219 6.98742L18.1604 17.0499L18.4399 20.4041Z" fill="#FFFAF4"/>
<path d="M17.0024 3.15409L17.3219 6.98742M17.0024 3.15409C15.0858 5.07075 7.89826 6.50825 4.5441 5.54992M17.0024 3.15409C18.4398 -1.15843 0.710687 1.71662 4.5441 5.54992M4.5441 5.54992L5.4066 8.90409M5.4066 8.90409C8.37743 9.86242 15.6608 8.52075 17.3219 6.98742M5.4066 8.90409L7.89826 18.5939M17.3219 6.98742L18.1604 17.0499M7.89826 18.5939L8.8566 22.3208C11.2524 23.2791 17.0023 22.8 18.4399 20.4041L18.1604 17.0499M7.89826 18.5939C11.2524 19.4458 16.4035 18.5833 18.1604 17.0499" stroke="#0C0A09" stroke-width="1.5" stroke-linejoin="round"/>
<path d="M17.3218 6.9873C15.6607 8.52064 8.37733 9.8623 5.40649 8.90397L7.89816 18.5938C11.2523 19.4456 16.4034 18.5831 18.1603 17.0498L17.3218 6.9873Z" fill="#14B6A4" stroke="#14B6A4" stroke-width="0.4" stroke-linejoin="round"/>
<path d="M4.5441 5.54992C7.89826 6.50826 15.0858 5.07076 17.0024 3.15409C18.4398 -1.15843 0.710687 1.71662 4.5441 5.54992Z" fill="#FF89A4" stroke="#FF89A4" stroke-width="0.4" stroke-linejoin="round"/>
<g style="mix-blend-mode:multiply" opacity="0.8">
<path d="M10.5646 11.2265C10.5798 11.3128 10.5977 11.4246 10.6182 11.5618C10.638 11.6955 10.6596 11.8493 10.6828 12.0231C10.7097 12.1963 10.7372 12.3843 10.7656 12.5869C10.7932 12.7859 10.8243 12.9936 10.8587 13.21C10.9522 13.1304 11.0658 13.0492 11.1995 12.9664C11.3361 12.8792 11.4775 12.7876 11.6237 12.6914C11.7734 12.5945 11.9204 12.4926 12.0647 12.3856C12.2126 12.278 12.3444 12.1639 12.4604 12.0433C12.7438 11.7376 12.9487 11.4697 13.075 11.2398C13.2042 11.0057 13.2536 10.8024 13.2232 10.6298C13.2105 10.5579 13.1872 10.499 13.1531 10.4531C13.1227 10.4066 13.0878 10.3664 13.0485 10.3325C12.9575 10.3004 12.8265 10.2827 12.6554 10.2795C12.4879 10.2757 12.2855 10.2947 12.0482 10.3365C11.8252 10.3758 11.6037 10.4334 11.3835 10.5093C11.1663 10.581 10.9582 10.6622 10.7591 10.7529C10.5595 10.84 10.3733 10.9303 10.2008 11.0237C10.0318 11.1165 9.8819 11.2023 9.75118 11.2809C9.62046 11.3596 9.51576 11.4281 9.43708 11.4865C9.35776 11.5412 9.30974 11.5738 9.29303 11.5842C9.27633 11.5945 9.25697 11.6109 9.23497 11.6333C9.21593 11.6515 9.19563 11.6625 9.17406 11.6663C9.12731 11.6746 9.09178 11.6623 9.06747 11.6295C9.04315 11.5967 9.0311 11.5599 9.03132 11.5191C9.00065 11.5134 8.97379 11.4977 8.95074 11.4721C8.92706 11.4429 8.90665 11.4113 8.88953 11.3773C8.8724 11.3432 8.85919 11.3103 8.84988 11.2786C8.83995 11.2433 8.8334 11.2166 8.83023 11.1987C8.81755 11.1267 8.83701 11.0584 8.88863 10.9937C8.9432 10.9248 9.01703 10.8599 9.11009 10.799C9.13336 10.7837 9.18286 10.7491 9.25858 10.6949C9.3379 10.6402 9.43784 10.5762 9.5584 10.503C9.68193 10.4256 9.82132 10.3436 9.97657 10.2569C10.1318 10.1702 10.2988 10.087 10.4775 10.0073C10.6556 9.924 10.8407 9.84873 11.0327 9.7815C11.2248 9.71427 11.4179 9.66354 11.6121 9.6293C11.7529 9.60817 11.9037 9.59085 12.0645 9.57734C12.2246 9.56023 12.3854 9.55782 12.547 9.57011C12.7086 9.5824 12.8622 9.61277 13.0079 9.66122C13.1572 9.70904 13.2894 9.78583 13.4045 9.8916C13.5191 9.95295 13.6262 10.0453 13.7258 10.1686C13.8284 10.2877 13.8964 10.4425 13.93 10.6331C13.9535 10.7661 13.9621 10.8888 13.956 11.0011C13.9528 11.1092 13.946 11.1864 13.9357 11.2327C13.8834 11.4829 13.7984 11.7055 13.6808 11.9004C13.5668 12.0948 13.4361 12.268 13.2886 12.42C13.1442 12.5679 12.9947 12.698 12.8403 12.8105C12.6859 12.923 12.5451 13.0183 12.418 13.0963C12.569 13.0697 12.7249 13.0496 12.8856 13.0361C13.05 13.0219 13.2129 13.021 13.3745 13.0333C13.5391 13.0413 13.6996 13.0686 13.8561 13.1152C14.0126 13.1618 14.1618 13.23 14.3037 13.3199C14.398 13.3922 14.4864 13.473 14.5689 13.5623C14.638 13.6391 14.7046 13.733 14.7687 13.844C14.8357 13.9509 14.8813 14.0726 14.9054 14.2092C14.9422 14.2917 14.9704 14.3887 14.9901 14.5001C15.0122 14.626 15.0262 14.7681 15.0319 14.9265C15.038 15.0663 15.0213 15.2342 14.9817 15.4303C14.9421 15.6264 14.8639 15.8348 14.7471 16.0556C14.6304 16.2763 14.4662 16.5018 14.2547 16.7319C14.0461 16.9577 13.7723 17.171 13.4332 17.3716C13.2226 17.5015 13.0272 17.6026 12.8472 17.6752C12.6673 17.7477 12.5017 17.7972 12.3507 17.8239C12.2788 17.8366 12.1985 17.8433 12.1096 17.8441C12.0244 17.8443 11.9415 17.8367 11.8609 17.8213C11.7846 17.8088 11.7177 17.7872 11.6604 17.7565C11.6067 17.7252 11.5751 17.6826 11.5656 17.6287C11.5605 17.5999 11.548 17.5817 11.5282 17.5741C11.5076 17.5629 11.485 17.5502 11.4603 17.536C11.4531 17.6003 11.4401 17.6526 11.4212 17.693C11.406 17.7328 11.3877 17.7657 11.3663 17.7917C11.342 17.8219 11.3164 17.845 11.2895 17.8608C11.2752 17.8634 11.2619 17.862 11.2499 17.8567C11.2277 17.8569 11.209 17.8454 11.1937 17.8221C11.1844 17.8534 11.1697 17.8857 11.1496 17.9189C11.1338 17.955 11.115 17.975 11.0935 17.9788C11.0827 17.9807 11.0662 17.9818 11.044 17.982C11.026 17.9852 11.0021 17.9653 10.9723 17.9223C10.9461 17.8788 10.9123 17.8032 10.8711 17.6955C10.8329 17.5836 10.7848 17.416 10.7268 17.1926C10.6719 16.9651 10.607 16.6707 10.5322 16.3094C10.4574 15.9482 10.3721 15.4961 10.2763 14.9531C10.2377 14.7338 10.1971 14.5037 10.1546 14.2628C10.1115 14.0183 10.0711 13.7789 10.0335 13.5445C9.99528 13.3066 9.96074 13.0791 9.92989 12.8621C9.902 12.6409 9.87972 12.4409 9.86303 12.2622C9.84931 12.0793 9.84457 11.9262 9.84882 11.8031C9.85243 11.6765 9.87021 11.5881 9.90215 11.5379C9.92458 11.4969 9.96889 11.4539 10.0351 11.4088C10.1049 11.3632 10.1735 11.3214 10.241 11.2836C10.3078 11.2421 10.367 11.2094 10.4184 11.1855C10.4691 11.1581 10.4903 11.1414 10.4818 11.1354C10.5011 11.1395 10.5177 11.1495 10.5316 11.1656C10.5485 11.1774 10.5595 11.1977 10.5646 11.2265ZM11.2441 13.9762C11.2189 13.9806 11.1786 13.9729 11.1232 13.953C11.0714 13.9325 11.0132 13.9075 10.9487 13.8781C10.9912 14.182 11.0337 14.4859 11.0761 14.7899C11.1186 15.0938 11.1585 15.3833 11.1959 15.6585C11.2327 15.9301 11.2678 16.1816 11.3012 16.4129C11.3381 16.6437 11.3703 16.8364 11.3975 16.991C11.4286 16.915 11.464 16.8421 11.5035 16.7721C11.5424 16.6985 11.5812 16.6342 11.6197 16.5792C11.6611 16.52 11.6991 16.4725 11.7336 16.4368C11.7716 16.4004 11.8015 16.3803 11.823 16.3765C11.8302 16.3753 11.8377 16.3758 11.8456 16.3781C11.8534 16.3804 11.8721 16.392 11.9017 16.4127C11.9089 16.4114 11.9158 16.4084 11.9223 16.4035C11.9289 16.3986 11.9358 16.3956 11.943 16.3943C11.9717 16.3892 11.9955 16.398 12.0143 16.4206C12.0332 16.4433 12.0489 16.4906 12.0616 16.5625C12.0686 16.602 12.0638 16.6381 12.0473 16.6706C12.0308 16.7032 12.0104 16.7346 11.986 16.7649C11.9647 16.7909 11.9415 16.8172 11.9166 16.8438C11.8952 16.8699 11.881 16.8946 11.874 16.9181C11.9041 16.9202 11.9338 16.9205 11.9632 16.919C11.9926 16.9176 12.0378 16.9114 12.099 16.9007C12.1307 16.8914 12.1945 16.8745 12.2903 16.8502C12.3891 16.8217 12.5119 16.7722 12.6589 16.7018C12.8053 16.6278 12.9706 16.5245 13.1548 16.3919C13.3427 16.2587 13.5412 16.081 13.7504 15.8587C13.9281 15.668 14.0656 15.4806 14.1629 15.2966C14.2602 15.1126 14.3288 14.9448 14.3688 14.7932C14.4118 14.6373 14.4346 14.5035 14.4371 14.3919C14.4397 14.2802 14.4368 14.201 14.4286 14.1543C14.3907 14.0238 14.312 13.9135 14.1923 13.8233C14.0755 13.729 13.9275 13.6569 13.7482 13.6069C13.5724 13.5563 13.3711 13.5288 13.1441 13.5243C12.9172 13.5199 12.6779 13.5398 12.4262 13.5842C12.2572 13.614 12.1096 13.6493 11.9833 13.6901C11.857 13.7309 11.7458 13.7728 11.6495 13.8157C11.5563 13.8544 11.4771 13.8887 11.4119 13.9188C11.3468 13.9488 11.2908 13.9679 11.2441 13.9762Z" fill="#0C0A09"/>
</g>
</svg>
