<svg width="24" height="24" viewBox="0 0 24 24" fill="none" xmlns="http://www.w3.org/2000/svg">
<path d="M19.4399 20.4041C18.0023 22.8 12.2524 23.2791 9.8566 22.3208L8.89826 18.5939L6.4066 8.90409L5.5441 5.54992C1.71069 1.71662 19.4398 -1.15843 18.0024 3.15409L18.3219 6.98742L19.1604 17.0499L19.4399 20.4041Z" fill="#FFFAF4"/>
<path d="M18.0024 3.15409L18.3219 6.98742M18.0024 3.15409C16.0858 5.07076 8.89826 6.50826 5.5441 5.54992M18.0024 3.15409C19.4398 -1.15843 1.71069 1.71662 5.5441 5.54992M5.5441 5.54992L6.4066 8.90409M6.4066 8.90409C9.37743 9.86242 16.6608 8.52076 18.3219 6.98742M6.4066 8.90409L8.89826 18.5939M18.3219 6.98742L19.1604 17.0499M8.89826 18.5939L9.85659 22.3208C12.2524 23.2791 18.0023 22.8 19.4399 20.4041L19.1604 17.0499M8.89826 18.5939C12.2524 19.4458 17.4035 18.5833 19.1604 17.0499" stroke="#0C0A09" stroke-width="1.5"/>
<path d="M18.3218 6.9873C16.6607 8.52064 9.37733 9.8623 6.40649 8.90397L8.89816 18.5938C12.2523 19.4456 17.4034 18.5831 19.1603 17.0498L18.3218 6.9873Z" fill="#14B6A4"/>
<path d="M5.5441 5.54992C8.89826 6.50826 16.0858 5.07076 18.0024 3.15409C19.4398 -1.15843 1.71069 1.71662 5.5441 5.54992Z" fill="#FF89A4"/>
</svg>
